<svg width="894" height="156" viewBox="0 0 894 156" fill="none" xmlns="http://www.w3.org/2000/svg">
<path d="M227.424 121.128C225.547 121.128 223.968 120.531 222.688 119.336C221.493 118.056 220.896 116.477 220.896 114.6V77.992C220.896 72.616 219.573 68.648 216.928 66.088C214.283 63.4427 210.827 62.12 206.56 62.12C202.123 62.12 198.453 63.656 195.552 66.728C192.736 69.8 191.328 73.7253 191.328 78.504H180.704C180.704 72.9573 181.899 68.0933 184.288 63.912C186.677 59.6453 190.005 56.3173 194.272 53.928C198.624 51.5387 203.573 50.344 209.12 50.344C213.984 50.344 218.293 51.4107 222.048 53.544C225.803 55.6773 228.704 58.8347 230.752 63.016C232.885 67.112 233.952 72.104 233.952 77.992V114.6C233.952 116.477 233.355 118.056 232.16 119.336C230.965 120.531 229.387 121.128 227.424 121.128ZM142.048 121.128C140.171 121.128 138.592 120.531 137.312 119.336C136.117 118.056 135.52 116.477 135.52 114.6V57.64C135.52 55.6773 136.117 54.0987 137.312 52.904C138.592 51.7093 140.171 51.112 142.048 51.112C144.011 51.112 145.589 51.7093 146.784 52.904C147.979 54.0987 148.576 55.6773 148.576 57.64V114.6C148.576 116.477 147.979 118.056 146.784 119.336C145.589 120.531 144.011 121.128 142.048 121.128ZM184.8 121.128C182.923 121.128 181.344 120.531 180.064 119.336C178.869 118.056 178.272 116.477 178.272 114.6V77.992C178.272 72.616 176.949 68.648 174.304 66.088C171.659 63.4427 168.203 62.12 163.936 62.12C159.499 62.12 155.829 63.656 152.928 66.728C150.027 69.8 148.576 73.7253 148.576 78.504H140.512C140.512 72.9573 141.621 68.0933 143.84 63.912C146.059 59.6453 149.131 56.3173 153.056 53.928C156.981 51.5387 161.461 50.344 166.496 50.344C171.36 50.344 175.669 51.4107 179.424 53.544C183.179 55.6773 186.08 58.8347 188.128 63.016C190.261 67.112 191.328 72.104 191.328 77.992V114.6C191.328 116.477 190.731 118.056 189.536 119.336C188.341 120.531 186.763 121.128 184.8 121.128ZM284.829 121.512C278.6 121.512 273.01 119.976 268.061 116.904C263.112 113.747 259.186 109.523 256.285 104.232C253.469 98.856 252.061 92.7973 252.061 86.056C252.061 79.3147 253.597 73.256 256.669 67.88C259.826 62.504 264.05 58.28 269.341 55.208C274.717 52.0507 280.733 50.472 287.389 50.472C294.045 50.472 300.018 52.0507 305.309 55.208C310.6 58.28 314.781 62.504 317.853 67.88C321.01 73.256 322.589 79.3147 322.589 86.056H317.597C317.597 92.7973 316.146 98.856 313.245 104.232C310.429 109.523 306.546 113.747 301.597 116.904C296.648 119.976 291.058 121.512 284.829 121.512ZM287.389 109.992C291.741 109.992 295.624 108.968 299.037 106.92C302.45 104.787 305.138 101.928 307.101 98.344C309.064 94.6747 310.045 90.5787 310.045 86.056C310.045 81.448 309.064 77.352 307.101 73.768C305.138 70.0987 302.45 67.24 299.037 65.192C295.624 63.0587 291.741 61.992 287.389 61.992C283.122 61.992 279.24 63.0587 275.741 65.192C272.328 67.24 269.597 70.0987 267.549 73.768C265.586 77.352 264.605 81.448 264.605 86.056C264.605 90.5787 265.586 94.6747 267.549 98.344C269.597 101.928 272.328 104.787 275.741 106.92C279.24 108.968 283.122 109.992 287.389 109.992ZM316.061 121.128C314.184 121.128 312.605 120.531 311.325 119.336C310.13 118.056 309.533 116.477 309.533 114.6V95.016L311.965 81.448L322.589 86.056V114.6C322.589 116.477 321.949 118.056 320.669 119.336C319.474 120.531 317.938 121.128 316.061 121.128ZM358.66 121C354.905 121 351.577 119.976 348.676 117.928C345.775 115.88 343.513 113.107 341.892 109.608C340.271 106.024 339.46 101.928 339.46 97.32V27.432C339.46 25.5547 340.057 24.0187 341.252 22.824C342.447 21.6293 343.983 21.032 345.86 21.032C347.737 21.032 349.273 21.6293 350.468 22.824C351.663 24.0187 352.26 25.5547 352.26 27.432V97.32C352.26 100.477 352.857 103.08 354.052 105.128C355.247 107.176 356.783 108.2 358.66 108.2H361.86C363.567 108.2 364.932 108.797 365.956 109.992C367.065 111.187 367.62 112.723 367.62 114.6C367.62 116.477 366.809 118.013 365.188 119.208C363.567 120.403 361.476 121 358.916 121H358.66ZM405.704 121.512C399.304 121.512 393.629 120.019 388.68 117.032C383.816 113.96 379.976 109.779 377.16 104.488C374.344 99.112 372.936 92.968 372.936 86.056C372.936 79.0587 374.429 72.9147 377.416 67.624C380.488 62.248 384.669 58.0667 389.96 55.08C395.251 52.008 401.352 50.472 408.264 50.472C415.091 50.472 421.149 52.008 426.44 55.08C431.731 58.0667 435.869 62.248 438.856 67.624C441.928 72.9147 443.464 79.0587 443.464 86.056H435.912C435.912 92.968 434.589 99.112 431.944 104.488C429.384 109.779 425.843 113.96 421.32 117.032C416.797 120.019 411.592 121.512 405.704 121.512ZM408.008 150.056C401.949 150.056 396.275 148.861 390.984 146.472C385.693 144.083 381.213 140.584 377.544 135.976C376.435 134.525 376.008 133.032 376.264 131.496C376.605 129.96 377.459 128.723 378.824 127.784C380.36 126.76 381.939 126.419 383.56 126.76C385.267 127.101 386.632 127.955 387.656 129.32C389.96 132.221 392.861 134.483 396.36 136.104C399.859 137.725 403.827 138.536 408.264 138.536C412.36 138.536 416.115 137.555 419.528 135.592C423.027 133.629 425.8 130.728 427.848 126.888C429.896 123.048 430.92 118.355 430.92 112.808V94.632L435.144 83.368L443.464 86.056V113.704C443.464 120.445 441.971 126.547 438.984 132.008C435.997 137.555 431.816 141.949 426.44 145.192C421.149 148.435 415.005 150.056 408.008 150.056ZM408.264 109.992C412.701 109.992 416.627 108.968 420.04 106.92C423.453 104.872 426.099 102.056 427.976 98.472C429.939 94.888 430.92 90.7493 430.92 86.056C430.92 81.3627 429.939 77.224 427.976 73.64C426.099 69.9707 423.453 67.112 420.04 65.064C416.627 63.016 412.701 61.992 408.264 61.992C403.827 61.992 399.901 63.016 396.488 65.064C393.075 67.112 390.387 69.9707 388.424 73.64C386.461 77.224 385.48 81.3627 385.48 86.056C385.48 90.7493 386.461 94.888 388.424 98.472C390.387 102.056 393.075 104.872 396.488 106.92C399.901 108.968 403.827 109.992 408.264 109.992ZM492.079 121.512C485.85 121.512 480.26 119.976 475.311 116.904C470.362 113.747 466.436 109.523 463.535 104.232C460.719 98.856 459.311 92.7973 459.311 86.056C459.311 79.3147 460.847 73.256 463.919 67.88C467.076 62.504 471.3 58.28 476.591 55.208C481.967 52.0507 487.983 50.472 494.639 50.472C501.295 50.472 507.268 52.0507 512.559 55.208C517.85 58.28 522.031 62.504 525.103 67.88C528.26 73.256 529.839 79.3147 529.839 86.056H524.847C524.847 92.7973 523.396 98.856 520.495 104.232C517.679 109.523 513.796 113.747 508.847 116.904C503.898 119.976 498.308 121.512 492.079 121.512ZM494.639 109.992C498.991 109.992 502.874 108.968 506.287 106.92C509.7 104.787 512.388 101.928 514.351 98.344C516.314 94.6747 517.295 90.5787 517.295 86.056C517.295 81.448 516.314 77.352 514.351 73.768C512.388 70.0987 509.7 67.24 506.287 65.192C502.874 63.0587 498.991 61.992 494.639 61.992C490.372 61.992 486.49 63.0587 482.991 65.192C479.578 67.24 476.847 70.0987 474.799 73.768C472.836 77.352 471.855 81.448 471.855 86.056C471.855 90.5787 472.836 94.6747 474.799 98.344C476.847 101.928 479.578 104.787 482.991 106.92C486.49 108.968 490.372 109.992 494.639 109.992ZM523.311 121.128C521.434 121.128 519.855 120.531 518.575 119.336C517.38 118.056 516.783 116.477 516.783 114.6V95.016L519.215 81.448L529.839 86.056V114.6C529.839 116.477 529.199 118.056 527.919 119.336C526.724 120.531 525.188 121.128 523.311 121.128ZM641.174 121.128C639.297 121.128 637.718 120.531 636.438 119.336C635.243 118.056 634.646 116.477 634.646 114.6V77.992C634.646 72.616 633.323 68.648 630.678 66.088C628.033 63.4427 624.577 62.12 620.31 62.12C615.873 62.12 612.203 63.656 609.302 66.728C606.486 69.8 605.078 73.7253 605.078 78.504H594.454C594.454 72.9573 595.649 68.0933 598.038 63.912C600.427 59.6453 603.755 56.3173 608.022 53.928C612.374 51.5387 617.323 50.344 622.87 50.344C627.734 50.344 632.043 51.4107 635.798 53.544C639.553 55.6773 642.454 58.8347 644.502 63.016C646.635 67.112 647.702 72.104 647.702 77.992V114.6C647.702 116.477 647.105 118.056 645.91 119.336C644.715 120.531 643.137 121.128 641.174 121.128ZM555.798 121.128C553.921 121.128 552.342 120.531 551.062 119.336C549.867 118.056 549.27 116.477 549.27 114.6V57.64C549.27 55.6773 549.867 54.0987 551.062 52.904C552.342 51.7093 553.921 51.112 555.798 51.112C557.761 51.112 559.339 51.7093 560.534 52.904C561.729 54.0987 562.326 55.6773 562.326 57.64V114.6C562.326 116.477 561.729 118.056 560.534 119.336C559.339 120.531 557.761 121.128 555.798 121.128ZM598.55 121.128C596.673 121.128 595.094 120.531 593.814 119.336C592.619 118.056 592.022 116.477 592.022 114.6V77.992C592.022 72.616 590.699 68.648 588.054 66.088C585.409 63.4427 581.953 62.12 577.686 62.12C573.249 62.12 569.579 63.656 566.678 66.728C563.777 69.8 562.326 73.7253 562.326 78.504H554.262C554.262 72.9573 555.371 68.0933 557.59 63.912C559.809 59.6453 562.881 56.3173 566.806 53.928C570.731 51.5387 575.211 50.344 580.246 50.344C585.11 50.344 589.419 51.4107 593.174 53.544C596.929 55.6773 599.83 58.8347 601.878 63.016C604.011 67.112 605.078 72.104 605.078 77.992V114.6C605.078 116.477 604.481 118.056 603.286 119.336C602.091 120.531 600.513 121.128 598.55 121.128ZM681.939 151.72C681.086 151.72 680.062 151.464 678.867 150.952C675.112 149.245 674.088 146.557 675.795 142.888L714.835 54.696C716.542 51.112 719.23 50.088 722.899 51.624C726.739 53.2453 727.806 55.9333 726.099 59.688L686.931 147.752C685.907 150.397 684.243 151.72 681.939 151.72ZM697.043 118.184C695.422 118.867 693.886 118.952 692.435 118.44C691.07 117.843 689.96 116.733 689.107 115.112L659.795 59.432C658.942 57.8107 658.814 56.2747 659.411 54.824C660.094 53.288 661.246 52.1787 662.867 51.496C664.488 50.8133 666.024 50.7707 667.475 51.368C668.926 51.88 670.035 52.9467 670.803 54.568L698.835 110.248C699.688 111.869 699.987 113.448 699.731 114.984C699.56 116.435 698.664 117.501 697.043 118.184ZM742.107 123.048C739.718 123.048 737.627 122.195 735.835 120.488C734.128 118.696 733.275 116.605 733.275 114.216C733.275 111.741 734.128 109.651 735.835 107.944C737.627 106.152 739.718 105.256 742.107 105.256C744.582 105.256 746.672 106.152 748.379 107.944C750.086 109.651 750.939 111.741 750.939 114.216C750.939 116.605 750.086 118.696 748.379 120.488C746.672 122.195 744.582 123.048 742.107 123.048ZM798.079 121.512C791.85 121.512 786.26 119.976 781.311 116.904C776.362 113.747 772.436 109.523 769.535 104.232C766.719 98.856 765.311 92.7973 765.311 86.056C765.311 79.3147 766.847 73.256 769.919 67.88C773.076 62.504 777.3 58.28 782.591 55.208C787.967 52.0507 793.983 50.472 800.639 50.472C807.295 50.472 813.268 52.0507 818.559 55.208C823.85 58.28 828.031 62.504 831.103 67.88C834.26 73.256 835.839 79.3147 835.839 86.056H830.847C830.847 92.7973 829.396 98.856 826.495 104.232C823.679 109.523 819.796 113.747 814.847 116.904C809.898 119.976 804.308 121.512 798.079 121.512ZM800.639 109.992C804.991 109.992 808.874 108.968 812.287 106.92C815.7 104.787 818.388 101.928 820.351 98.344C822.314 94.6747 823.295 90.5787 823.295 86.056C823.295 81.448 822.314 77.352 820.351 73.768C818.388 70.0987 815.7 67.24 812.287 65.192C808.874 63.0587 804.991 61.992 800.639 61.992C796.372 61.992 792.49 63.0587 788.991 65.192C785.578 67.24 782.847 70.0987 780.799 73.768C778.836 77.352 777.855 81.448 777.855 86.056C777.855 90.5787 778.836 94.6747 780.799 98.344C782.847 101.928 785.578 104.787 788.991 106.92C792.49 108.968 796.372 109.992 800.639 109.992ZM829.311 121.128C827.434 121.128 825.855 120.531 824.575 119.336C823.38 118.056 822.783 116.477 822.783 114.6V95.016L825.215 81.448L835.839 86.056V114.6C835.839 116.477 835.199 118.056 833.919 119.336C832.724 120.531 831.188 121.128 829.311 121.128ZM863.078 121C861.201 121 859.622 120.403 858.342 119.208C857.147 117.928 856.55 116.349 856.55 114.472V57.512C856.55 55.5493 857.147 53.9707 858.342 52.776C859.622 51.5813 861.201 50.984 863.078 50.984C865.041 50.984 866.619 51.5813 867.814 52.776C869.009 53.9707 869.606 55.5493 869.606 57.512V114.472C869.606 116.349 869.009 117.928 867.814 119.208C866.619 120.403 865.041 121 863.078 121ZM863.078 39.592C860.774 39.592 858.769 38.7813 857.062 37.16C855.441 35.4533 854.63 33.448 854.63 31.144C854.63 28.84 855.441 26.8773 857.062 25.256C858.769 23.5493 860.774 22.696 863.078 22.696C865.382 22.696 867.345 23.5493 868.966 25.256C870.673 26.8773 871.526 28.84 871.526 31.144C871.526 33.448 870.673 35.4533 868.966 37.16C867.345 38.7813 865.382 39.592 863.078 39.592Z" fill="black"/>
<g clip-path="url(#clip0_26_27)">
<path d="M60.9119 8C64.382 8 66.7442 9.68708 67.9975 13.0618L108.772 110.405C109.833 113.105 109.64 115.563 108.194 117.781C106.845 119.902 104.772 120.964 101.977 120.964C100.531 120.964 99.1332 120.577 97.7836 119.806C96.5307 118.938 95.6141 117.782 95.0357 116.335L87.8024 98.3625L87.8156 98.3636L81.0378 81.4136H80.9815L61.1855 32.2255L41.0695 81.4136H41.0607L40.9581 81.6718L40.8896 81.6442L35.0749 96.0859H35.0694L26.788 116.335C26.1133 117.878 25.1014 119.035 23.7521 119.806C22.499 120.577 21.1976 120.964 19.8481 120.964C17.149 120.964 15.0766 119.806 13.6306 117.492C12.1849 115.178 12.0406 112.719 13.1972 110.116L53.8274 13.0618C55.2733 9.68726 57.6348 8.00018 60.9119 8Z" fill="black"/>
<path d="M119.176 96.1036H2.82407C1.26438 96.1036 0 97.3684 0 98.9286C0 100.489 1.26438 101.754 2.82407 101.754H119.176C120.736 101.754 122 100.489 122 98.9286C122 97.3684 120.736 96.1036 119.176 96.1036Z" fill="black"/>
<path d="M114.657 80.2836H7.34263C5.78294 80.2836 4.51855 81.5484 4.51855 83.1086C4.51855 84.6688 5.78294 85.9336 7.34263 85.9336H114.657C116.217 85.9336 117.482 84.6688 117.482 83.1086C117.482 81.5484 116.217 80.2836 114.657 80.2836Z" fill="black"/>
<path d="M110.139 64.4636H11.8612C10.3015 64.4636 9.03711 65.7284 9.03711 67.2886C9.03711 68.8488 10.3015 70.1136 11.8612 70.1136H110.139C111.699 70.1136 112.963 68.8488 112.963 67.2886C112.963 65.7284 111.699 64.4636 110.139 64.4636Z" fill="black"/>
</g>
<defs>
<clipPath id="clip0_26_27">
<rect width="122" height="113" fill="white" transform="translate(0 8)"/>
</clipPath>
</defs>
</svg>
